<svg xmlns="http://www.w3.org/2000/svg" viewBox="0 0 900 260" role="img" aria-labelledby="title desc">
<title id="title">Curry Bible logo</title><desc id="desc">Curry Bible brutally honest reviews logo mark.</desc>
<defs>
  <linearGradient id="spice" x1="0" x2="1"><stop offset="0" stop-color="#b91c1c"/><stop offset=".45" stop-color="#f59e0b"/><stop offset="1" stop-color="#84a83b"/></linearGradient>
  <filter id="rough"><feTurbulence type="fractalNoise" baseFrequency="0.9" numOctaves="2" stitchTiles="stitch"/><feColorMatrix type="saturate" values="0"/><feComponentTransfer><feFuncA type="table" tableValues="0 .22"/></feComponentTransfer><feComposite operator="in" in2="SourceGraphic"/></filter>
</defs>
<rect width="900" height="260" rx="36" fill="#fff8ef"/>
<g transform="translate(38 30)">
  <circle cx="100" cy="100" r="94" fill="#180d08" stroke="#b91c1c" stroke-width="8"/>
  <circle cx="100" cy="100" r="78" fill="none" stroke="#d9a066" stroke-width="3" opacity=".8"/>
  <path d="M52 122c0 31 96 31 96 0v-10H52z" fill="#e87516" stroke="#180d08" stroke-width="5"/>
  <path d="M61 107c16-16 62-17 79 0" fill="none" stroke="#f59e0b" stroke-width="16" stroke-linecap="round"/>
  <path d="M65 84c-10-29 29-35 35-12 13-29 49-9 31 15" fill="#fff7dc" stroke="#180d08" stroke-width="5"/>
  <path d="M50 89l-18-34" stroke="#f59e0b" stroke-width="7" stroke-linecap="round"/><path d="M38 45c14 8 18 18 15 32-14-6-20-17-15-32z" fill="#ef4444" stroke="#180d08" stroke-width="3"/>
  <path d="M150 93l27-31" stroke="#e5e7eb" stroke-width="7" stroke-linecap="round"/>
  <path d="M65 136c18 19 51 19 70 0" fill="none" stroke="#180d08" stroke-width="6" stroke-linecap="round"/>
</g>
<g transform="translate(245 56)">
  <text x="0" y="68" font-family="Impact, Arial Black, sans-serif" font-size="74" letter-spacing="4" fill="url(#spice)">CURRY BIBLE</text>
  <text x="4" y="118" font-family="Arial, Helvetica, sans-serif" font-weight="900" font-size="26" letter-spacing="4" fill="#6b3e26">BRUTALLY HONEST CURRY REVIEWS</text>
  <text x="4" y="158" font-family="Arial, Helvetica, sans-serif" font-size="23" fill="#6f594b">Real curry nights. Real group scores. No bought praise.</text>
</g>
<rect width="900" height="260" rx="36" fill="transparent" filter="url(#rough)" opacity=".35"/>
</svg>